<svg width="24" height="24" viewBox="0 0 24 24" fill="none" xmlns="http://www.w3.org/2000/svg">
<path d="M12.0018 5.84719C8.59677 5.84719 5.84877 8.59519 5.84877 12.0002C5.84877 15.4052 8.59677 18.1532 12.0018 18.1532C15.4068 18.1532 18.1548 15.4052 18.1548 12.0002C18.1548 8.59519 15.4068 5.84719 12.0018 5.84719ZM12.0018 15.9992C9.79977 15.9992 8.00277 14.2022 8.00277 12.0002C8.00277 9.79819 9.79977 8.00119 12.0018 8.00119C14.2038 8.00119 16.0008 9.79819 16.0008 12.0002C16.0008 14.2022 14.2038 15.9992 12.0018 15.9992ZM18.4068 4.16119C17.6118 4.16119 16.9698 4.80319 16.9698 5.59819C16.9698 6.39319 17.6118 7.03519 18.4068 7.03519C19.2018 7.03519 19.8438 6.39619 19.8438 5.59819C19.844 5.40942 19.807 5.22245 19.7349 5.048C19.6627 4.87354 19.5569 4.71504 19.4234 4.58155C19.2899 4.44807 19.1314 4.34223 18.957 4.2701C18.7825 4.19796 18.5955 4.16096 18.4068 4.16119ZM23.9958 12.0002C23.9958 10.3442 24.0108 8.70319 23.9178 7.05019C23.8248 5.13019 23.3868 3.42619 21.9828 2.02219C20.5758 0.615193 18.8748 0.180193 16.9548 0.0871931C15.2988 -0.00580693 13.6578 0.00919311 12.0048 0.00919311C10.3488 0.00919311 8.70777 -0.00580693 7.05477 0.0871931C5.13477 0.180193 3.43077 0.618193 2.02677 2.02219C0.619771 3.42919 0.184771 5.13019 0.0917707 7.05019C-0.00122929 8.70619 0.0137708 10.3472 0.0137708 12.0002C0.0137708 13.6532 -0.00122929 15.2972 0.0917707 16.9502C0.184771 18.8702 0.622771 20.5742 2.02677 21.9782C3.43377 23.3852 5.13477 23.8202 7.05477 23.9132C8.71077 24.0062 10.3518 23.9912 12.0048 23.9912C13.6608 23.9912 15.3018 24.0062 16.9548 23.9132C18.8748 23.8202 20.5788 23.3822 21.9828 21.9782C23.3898 20.5712 23.8248 18.8702 23.9178 16.9502C24.0138 15.2972 23.9958 13.6562 23.9958 12.0002ZM21.3558 19.0742C21.1368 19.6202 20.8728 20.0282 20.4498 20.4482C20.0268 20.8712 19.6218 21.1352 19.0758 21.3542C17.4978 21.9812 13.7508 21.8402 12.0018 21.8402C10.2528 21.8402 6.50277 21.9812 4.92477 21.3572C4.37877 21.1382 3.97077 20.8742 3.55077 20.4512C3.12777 20.0282 2.86377 19.6232 2.64477 19.0772C2.02077 17.4962 2.16177 13.7492 2.16177 12.0002C2.16177 10.2512 2.02077 6.50119 2.64477 4.92319C2.86377 4.37719 3.12777 3.96919 3.55077 3.54919C3.97377 3.12919 4.37877 2.86219 4.92477 2.64319C6.50277 2.01919 10.2528 2.16019 12.0018 2.16019C13.7508 2.16019 17.5008 2.01919 19.0788 2.64319C19.6248 2.86219 20.0328 3.12619 20.4528 3.54919C20.8758 3.97219 21.1398 4.37719 21.3588 4.92319C21.9828 6.50119 21.8418 10.2512 21.8418 12.0002C21.8418 13.7492 21.9828 17.4962 21.3558 19.0742Z" fill="#E61F5A"/>
</svg>
